<mxfile host="www.draw.io" modified="2019-12-09T05:49:29.332Z" agent="Mozilla/5.0 (X11; Linux x86_64) AppleWebKit/537.36 (KHTML, like Gecko) Chrome/78.0.3904.70 Safari/537.36" etag="t_kK06hRS1Q7KxtqSg_w" version="12.3.8" type="github" pages="1">
  <diagram id="i9YOTsJJg9F0nqaWipao" name="Page-1">
    <mxGraphModel dx="1408" dy="792" grid="1" gridSize="10" guides="1" tooltips="1" connect="1" arrows="1" fold="1" page="1" pageScale="1" pageWidth="850" pageHeight="1100" math="0" shadow="0">
      <root>
        <mxCell id="0"/>
        <mxCell id="1" parent="0"/>
        <mxCell id="KnmKkN8YXyTpCzLxxqHs-3" value="" style="html=1;points=[];perimeter=orthogonalPerimeter;" parent="1" vertex="1">
          <mxGeometry x="30" y="280" width="10" height="220" as="geometry"/>
        </mxCell>
        <mxCell id="KnmKkN8YXyTpCzLxxqHs-4" value="" style="html=1;points=[];perimeter=orthogonalPerimeter;" parent="1" vertex="1">
          <mxGeometry x="300" y="280" width="10" height="220" as="geometry"/>
        </mxCell>
        <mxCell id="KnmKkN8YXyTpCzLxxqHs-6" value="name" style="endArrow=block;endFill=1;html=1;edgeStyle=orthogonalEdgeStyle;align=left;verticalAlign=top;" parent="1" edge="1">
          <mxGeometry x="-1" relative="1" as="geometry">
            <mxPoint x="40" y="165.5" as="sourcePoint"/>
            <mxPoint x="305" y="165.5" as="targetPoint"/>
            <Array as="points">
              <mxPoint x="100" y="165.5"/>
              <mxPoint x="100" y="165.5"/>
            </Array>
          </mxGeometry>
        </mxCell>
        <mxCell id="KnmKkN8YXyTpCzLxxqHs-7" value="1" style="resizable=0;html=1;align=left;verticalAlign=bottom;labelBackgroundColor=#ffffff;fontSize=10;" parent="KnmKkN8YXyTpCzLxxqHs-6" connectable="0" vertex="1">
          <mxGeometry x="-1" relative="1" as="geometry"/>
        </mxCell>
        <mxCell id="KnmKkN8YXyTpCzLxxqHs-8" value="showAllPackages()" style="text;strokeColor=none;fillColor=none;align=left;verticalAlign=top;spacingLeft=4;spacingRight=4;overflow=hidden;rotatable=0;points=[[0,0.5],[1,0.5]];portConstraint=eastwest;" parent="1" vertex="1">
          <mxGeometry x="72" y="140" width="120" height="26" as="geometry"/>
        </mxCell>
        <mxCell id="KnmKkN8YXyTpCzLxxqHs-14" value="requestPackages()" style="text;strokeColor=none;fillColor=none;align=left;verticalAlign=top;spacingLeft=4;spacingRight=4;overflow=hidden;rotatable=0;points=[[0,0.5],[1,0.5]];portConstraint=eastwest;" parent="1" vertex="1">
          <mxGeometry x="115" y="267" width="110" height="26" as="geometry"/>
        </mxCell>
        <mxCell id="KnmKkN8YXyTpCzLxxqHs-15" value="name" style="endArrow=block;endFill=1;html=1;edgeStyle=orthogonalEdgeStyle;align=left;verticalAlign=top;entryX=0;entryY=0.055;entryDx=0;entryDy=0;entryPerimeter=0;" parent="1" target="KnmKkN8YXyTpCzLxxqHs-20" edge="1">
          <mxGeometry x="-1" relative="1" as="geometry">
            <mxPoint x="305" y="292" as="sourcePoint"/>
            <mxPoint x="450" y="292" as="targetPoint"/>
            <Array as="points"/>
          </mxGeometry>
        </mxCell>
        <mxCell id="KnmKkN8YXyTpCzLxxqHs-16" value="1" style="resizable=0;html=1;align=left;verticalAlign=bottom;labelBackgroundColor=#ffffff;fontSize=10;" parent="KnmKkN8YXyTpCzLxxqHs-15" connectable="0" vertex="1">
          <mxGeometry x="-1" relative="1" as="geometry"/>
        </mxCell>
        <mxCell id="KnmKkN8YXyTpCzLxxqHs-17" value="" style="endArrow=block;dashed=1;endFill=0;endSize=12;html=1;" parent="1" edge="1">
          <mxGeometry width="160" relative="1" as="geometry">
            <mxPoint x="300" y="230" as="sourcePoint"/>
            <mxPoint x="43" y="230" as="targetPoint"/>
            <Array as="points">
              <mxPoint x="50" y="230"/>
            </Array>
          </mxGeometry>
        </mxCell>
        <mxCell id="KnmKkN8YXyTpCzLxxqHs-18" value="return all available packages" style="text;strokeColor=none;fillColor=none;align=left;verticalAlign=top;spacingLeft=4;spacingRight=4;overflow=hidden;rotatable=0;points=[[0,0.5],[1,0.5]];portConstraint=eastwest;" parent="1" vertex="1">
          <mxGeometry x="100" y="200" width="170" height="26" as="geometry"/>
        </mxCell>
        <mxCell id="KnmKkN8YXyTpCzLxxqHs-19" value="" style="html=1;points=[];perimeter=orthogonalPerimeter;" parent="1" vertex="1">
          <mxGeometry x="30" y="153" width="10" height="90" as="geometry"/>
        </mxCell>
        <mxCell id="KnmKkN8YXyTpCzLxxqHs-20" value="" style="html=1;points=[];perimeter=orthogonalPerimeter;" parent="1" vertex="1">
          <mxGeometry x="515" y="280" width="10" height="220" as="geometry"/>
        </mxCell>
        <mxCell id="KnmKkN8YXyTpCzLxxqHs-23" value="name" style="endArrow=block;endFill=1;html=1;edgeStyle=orthogonalEdgeStyle;align=left;verticalAlign=top;" parent="1" edge="1">
          <mxGeometry x="-1" relative="1" as="geometry">
            <mxPoint x="30" y="292.5" as="sourcePoint"/>
            <mxPoint x="301" y="292.5" as="targetPoint"/>
            <Array as="points">
              <mxPoint x="40" y="292.5"/>
              <mxPoint x="301" y="292.5"/>
            </Array>
          </mxGeometry>
        </mxCell>
        <mxCell id="KnmKkN8YXyTpCzLxxqHs-24" value="1" style="resizable=0;html=1;align=left;verticalAlign=bottom;labelBackgroundColor=#ffffff;fontSize=10;" parent="KnmKkN8YXyTpCzLxxqHs-23" connectable="0" vertex="1">
          <mxGeometry x="-1" relative="1" as="geometry"/>
        </mxCell>
        <mxCell id="KnmKkN8YXyTpCzLxxqHs-27" value="return link for download package files" style="html=1;verticalAlign=bottom;endArrow=open;dashed=1;endSize=8;entryX=1;entryY=0.955;entryDx=0;entryDy=0;entryPerimeter=0;" parent="1" target="KnmKkN8YXyTpCzLxxqHs-4" edge="1">
          <mxGeometry relative="1" as="geometry">
            <mxPoint x="520" y="490" as="sourcePoint"/>
            <mxPoint x="440" y="490" as="targetPoint"/>
          </mxGeometry>
        </mxCell>
        <mxCell id="KnmKkN8YXyTpCzLxxqHs-28" value="" style="html=1;verticalAlign=bottom;endArrow=open;dashed=1;endSize=8;entryX=1.1;entryY=0.95;entryDx=0;entryDy=0;entryPerimeter=0;" parent="1" target="KnmKkN8YXyTpCzLxxqHs-3" edge="1">
          <mxGeometry relative="1" as="geometry">
            <mxPoint x="305" y="490" as="sourcePoint"/>
            <mxPoint x="95" y="490.0999999999999" as="targetPoint"/>
            <Array as="points">
              <mxPoint x="70" y="490"/>
            </Array>
          </mxGeometry>
        </mxCell>
        <mxCell id="8y4SK8bdZuWxl72XEnhY-1" value="" style="html=1;points=[];perimeter=orthogonalPerimeter;" vertex="1" parent="1">
          <mxGeometry x="300" y="157" width="10" height="83" as="geometry"/>
        </mxCell>
        <mxCell id="8y4SK8bdZuWxl72XEnhY-7" value="package" style="shape=umlLifeline;perimeter=lifelinePerimeter;whiteSpace=wrap;html=1;container=1;collapsible=0;recursiveResize=0;outlineConnect=0;" vertex="1" parent="1">
          <mxGeometry x="255" y="90" width="100" height="410" as="geometry"/>
        </mxCell>
        <mxCell id="8y4SK8bdZuWxl72XEnhY-9" value="&amp;lt;&amp;lt;BANK&amp;gt;&amp;gt;" style="shape=umlLifeline;perimeter=lifelinePerimeter;whiteSpace=wrap;html=1;container=1;collapsible=0;recursiveResize=0;outlineConnect=0;" vertex="1" parent="1">
          <mxGeometry x="470" y="90" width="100" height="400" as="geometry"/>
        </mxCell>
        <mxCell id="8y4SK8bdZuWxl72XEnhY-10" value="" style="shape=umlLifeline;participant=umlActor;perimeter=lifelinePerimeter;whiteSpace=wrap;html=1;container=1;collapsible=0;recursiveResize=0;verticalAlign=top;spacingTop=36;labelBackgroundColor=#ffffff;outlineConnect=0;" vertex="1" parent="1">
          <mxGeometry x="25" y="90" width="20" height="400" as="geometry"/>
        </mxCell>
      </root>
    </mxGraphModel>
  </diagram>
</mxfile>
